<?xml version="1.0" encoding="UTF-8" standalone="no"?><!DOCTYPE svg PUBLIC "-//W3C//DTD SVG 1.1//EN" "http://www.w3.org/Graphics/SVG/1.1/DTD/svg11.dtd">
<svg
  width="100%"
  height="100%"
  viewBox="0 0 3300 2550"
  version="1.1"
  xmlns="http://www.w3.org/2000/svg"
  xmlns:xlink="http://www.w3.org/1999/xlink"
  xml:space="preserve"
  xmlns:serif="http://www.serif.com/"
  style="
    fill-rule: evenodd;
    clip-rule: evenodd;
    stroke-linejoin: round;
    stroke-miterlimit: 2;
  "
>
  <defs>
    <style type="text/css">
      @import url("/webfonts.css");
    </style>
  </defs>
  <g transform="matrix(150,0,0,150,1906.74,417.6)"></g>
  <text
    x="303.543px"
    y="417.6px"
    style="
      font-family: 'PlayfairDisplay-Regular', 'Playfair Display';
      font-size: 150px;
    "
  >
    Playfair Display Regular
  </text>
  <g transform="matrix(150,0,0,150,1135.14,1047.3)"></g>
  <text
    x="303.543px"
    y="1047.3px"
    style="font-family: 'Lato-Regular', 'Lato', sans-serif; font-size: 150px"
  >
    Lato Regular
  </text>
  <g transform="matrix(150,0,0,150,941.043,1260.56)"></g>
  <text
    x="303.543px"
    y="1260.56px"
    style="
      font-family: 'Lato-Bold', 'Lato', sans-serif;
      font-weight: 700;
      font-size: 150px;
    "
  >
    Lato Bold
  </text>
  <g transform="matrix(150,0,0,150,1170.58,1468.98)"></g>
  <text
    x="303.543px"
    y="1468.98px"
    style="font-family: 'Helvetica'; font-size: 150px"
  >
    Arial Regular
  </text>
  <g transform="matrix(150,0,0,150,1011.94,1681.62)"></g>
  <text
    x="303.543px"
    y="1681.62px"
    style="
      font-family: 'Helvetica-Bold', 'Helvetica';
      font-weight: 700;
      font-size: 150px;
    "
  >
    Arial Bold
  </text>
  <g transform="matrix(150,0,0,150,1185.53,1890.09)"></g>
  <text
    x="303.543px"
    y="1890.09px"
    style="
      font-family: 'TimesNewRomanPSMT', 'Times New Roman', serif;
      font-size: 150px;
    "
  >
    Times Regular
  </text>
  <g transform="matrix(150,0,0,150,1030.11,2097.53)"></g>
  <text
    x="303.543px"
    y="2097.53px"
    style="
      font-family: 'TimesNewRomanPS-BoldMT', 'Times New Roman', serif;
      font-weight: 700;
      font-size: 150px;
    "
  >
    Times Bold
  </text>
  <g transform="matrix(150,0,0,150,1749.99,842.003)"></g>
  <text
    x="303.543px"
    y="842.003px"
    style="
      font-family: 'PlayfairDisplay-Bold', 'Playfair Display';
      font-weight: 700;
      font-size: 150px;
    "
  >
    Playfair Display Bold
  </text>
  <g transform="matrix(150,0,0,150,2058.24,629.726)"></g>
  <text
    x="303.543px"
    y="629.726px"
    style="
      font-family: 'PlayfairDisplay-SemiBold', 'Playfair Display';
      font-weight: 600;
      font-size: 150px;
    "
  >
    Playfair Display Semibold
  </text>
</svg>
